<svg width="100" height="100" viewBox="0 0 100 100" fill="none" xmlns="http://www.w3.org/2000/svg">
<path fill-rule="evenodd" clip-rule="evenodd" d="M16.8934 16.8934C12.5 21.2868 12.5 28.3579 12.5 42.5V57.5C12.5 71.6421 12.5 78.7132 16.8934 83.1066C21.2868 87.5 28.3579 87.5 42.5 87.5H57.5C71.6421 87.5 78.7132 87.5 83.1066 83.1066C87.5 78.7132 87.5 71.6421 87.5 57.5V42.5C87.5 28.3579 87.5 21.2868 83.1066 16.8934C78.7132 12.5 71.6421 12.5 57.5 12.5H42.5C28.3579 12.5 21.2868 12.5 16.8934 16.8934ZM49 29.1667V49L29.1667 49V51L49 51V70.8333H51V51H70.8333V49H51V29.1667H49Z" fill="#8687E7"/>
</svg>
