<svg width="275" height="275" viewBox="0 0 275 275" fill="none" xmlns="http://www.w3.org/2000/svg">
<path d="M275 210.32H0V210.457H275V210.32Z" fill="#EBEBEB"/>
<path d="M247.445 215.556H197.45V215.693H247.445V215.556Z" fill="#EBEBEB"/>
<path d="M182.171 214.065H168.482V214.203H182.171V214.065Z" fill="#EBEBEB"/>
<path d="M213.46 220.665H192.236V220.803H213.46V220.665Z" fill="#EBEBEB"/>
<path d="M41.305 219.741H28.853V219.879H41.305V219.741Z" fill="#EBEBEB"/>
<path d="M60.9895 219.741H46.2V219.879H60.9895V219.741Z" fill="#EBEBEB"/>
<path d="M123.832 217.42H98.0705V217.558H123.832V217.42Z" fill="#EBEBEB"/>
<path d="M130.35 185.79H24.1505C23.3185 185.789 22.5212 185.457 21.9334 184.868C21.3456 184.279 21.0155 183.481 21.0155 182.65V33.363C21.0227 32.5358 21.3561 31.7449 21.943 31.162C22.53 30.5792 23.3233 30.2514 24.1505 30.25H130.35C131.183 30.25 131.982 30.5809 132.571 31.1698C133.16 31.7588 133.491 32.5576 133.491 33.3905V182.65C133.491 183.482 133.16 184.281 132.571 184.87C131.982 185.459 131.183 185.79 130.35 185.79ZM24.1505 30.36C23.355 30.3615 22.5926 30.6785 22.0306 31.2415C21.4686 31.8045 21.153 32.5675 21.153 33.363V182.65C21.153 183.445 21.4686 184.208 22.0306 184.771C22.5926 185.334 23.355 185.651 24.1505 185.652H130.35C131.146 185.651 131.909 185.334 132.472 184.771C133.035 184.208 133.352 183.445 133.353 182.65V33.363C133.352 32.567 133.035 31.804 132.472 31.2412C131.909 30.6783 131.146 30.3615 130.35 30.36H24.1505Z" fill="#EBEBEB"/>
<path d="M249.321 185.79H143.116C142.283 185.789 141.485 185.457 140.896 184.869C140.308 184.28 139.976 183.482 139.975 182.65V33.363C139.984 32.5353 140.318 31.7444 140.906 31.1617C141.494 30.579 142.288 30.2514 143.116 30.25H249.321C250.147 30.2529 250.939 30.5812 251.524 31.164C252.11 31.7467 252.443 32.5368 252.45 33.363V182.65C252.45 183.481 252.121 184.278 251.534 184.866C250.947 185.455 250.152 185.787 249.321 185.79ZM143.116 30.36C142.32 30.3615 141.557 30.6783 140.994 31.2412C140.431 31.804 140.114 32.567 140.113 33.363V182.65C140.114 183.445 140.431 184.208 140.994 184.771C141.557 185.334 142.32 185.651 143.116 185.652H249.321C250.117 185.651 250.879 185.334 251.442 184.771C252.005 184.208 252.322 183.445 252.324 182.65V33.363C252.322 32.567 252.005 31.804 251.442 31.2412C250.879 30.6783 250.117 30.3615 249.321 30.36H143.116Z" fill="#EBEBEB"/>
<path d="M28.8475 210.315H94.6055L94.6055 64.889H28.8475L28.8475 210.315Z" fill="#F0F0F0"/>
<path d="M28.853 210.315H91.4925L91.4925 64.889H28.853L28.853 210.315Z" fill="#F5F5F5"/>
<path d="M88.1925 207.02L88.1925 68.1945H32.153L32.153 207.02H88.1925Z" fill="#F0F0F0"/>
<path d="M50.259 133.65H38.8355C38.4465 133.649 38.0738 133.493 37.7987 133.218C37.5236 132.943 37.3685 132.571 37.367 132.182C37.3685 131.792 37.5236 131.42 37.7987 131.145C38.0738 130.87 38.4465 130.714 38.8355 130.713H50.259C50.648 130.714 51.0207 130.87 51.2958 131.145C51.5709 131.42 51.7261 131.792 51.7275 132.182C51.7261 132.571 51.5709 132.943 51.2958 133.218C51.0207 133.493 50.648 133.649 50.259 133.65Z" fill="white"/>
<path d="M33.011 207.02L33.011 68.1945H32.153L32.153 207.02H33.011Z" fill="#F0F0F0"/>
<path d="M125.417 207.559H135.206V165.099H125.417V207.559Z" fill="#F0F0F0"/>
<path d="M85.0465 210.254H133.326V207.565H85.0465V210.254Z" fill="#F0F0F0"/>
<path d="M125.417 165.104H83.1655V207.565H125.417V165.104Z" fill="#F5F5F5"/>
<path d="M121.561 170.329H87.01V184.256H121.561V170.329Z" fill="#F0F0F0"/>
<path d="M121.561 188.408H87.01V202.334H121.561V188.408Z" fill="#F0F0F0"/>
<path d="M100.408 171.501H108.168C108.42 171.5 108.662 171.399 108.84 171.221C109.018 171.043 109.119 170.801 109.12 170.549C109.12 170.297 109.02 170.054 108.842 169.875C108.663 169.695 108.421 169.594 108.168 169.592H100.408C100.155 169.594 99.9131 169.695 99.7348 169.875C99.5566 170.054 99.4565 170.297 99.4565 170.549C99.4579 170.801 99.5586 171.043 99.7368 171.221C99.9149 171.399 100.156 171.5 100.408 171.501Z" fill="#F5F5F5"/>
<path d="M100.408 189.585H108.168C108.418 189.584 108.656 189.485 108.834 189.311C109.012 189.136 109.114 188.899 109.12 188.65C109.119 188.398 109.018 188.157 108.84 187.979C108.662 187.801 108.42 187.7 108.168 187.698H100.408C100.156 187.7 99.9149 187.801 99.7368 187.979C99.5586 188.157 99.4579 188.398 99.4565 188.65C99.4622 188.899 99.5648 189.136 99.7425 189.311C99.9202 189.485 100.159 189.584 100.408 189.585Z" fill="#F5F5F5"/>
<path d="M107.509 164.269C107.316 164.267 107.133 164.19 106.997 164.054C106.861 163.918 106.784 163.735 106.783 163.542V141.482C106.783 141.289 106.859 141.105 106.995 140.969C107.131 140.832 107.316 140.756 107.509 140.756C107.701 140.757 107.884 140.834 108.02 140.97C108.156 141.106 108.233 141.29 108.234 141.482V163.542C108.233 163.735 108.156 163.918 108.02 164.054C107.884 164.19 107.701 164.267 107.509 164.269Z" fill="#F5F5F5"/>
<path d="M114.301 163.41H100.716V165.121H114.301V163.41Z" fill="#F0F0F0"/>
<path d="M111.27 151.068C111.175 151.068 111.084 151.031 111.016 150.964C110.948 150.897 110.909 150.806 110.907 150.711V139.7C110.909 139.604 110.948 139.513 111.015 139.445C111.083 139.377 111.175 139.338 111.27 139.337C111.366 139.338 111.458 139.377 111.526 139.445C111.593 139.513 111.632 139.604 111.633 139.7V150.7C111.634 150.748 111.625 150.796 111.607 150.841C111.59 150.885 111.563 150.926 111.529 150.96C111.495 150.995 111.455 151.022 111.411 151.04C111.366 151.059 111.319 151.068 111.27 151.068Z" fill="#F0F0F0"/>
<path d="M96.943 143.495C96.943 143.495 97.2125 133.1 107.509 133.1C117.805 133.1 118.069 143.484 118.069 143.484L96.943 143.495Z" fill="#F0F0F0"/>
<path d="M186.07 158.18C186.362 158.18 186.659 158.18 186.956 158.207C189.998 158.427 192.858 159.739 195.01 161.901C197.162 164.062 198.46 166.929 198.665 169.972C198.752 171.354 198.615 172.742 198.259 174.081C196.88 179.45 196.214 184.977 196.278 190.52V206.657C196.279 206.936 196.225 207.213 196.118 207.472C196.011 207.73 195.854 207.964 195.656 208.162C195.459 208.359 195.224 208.515 194.965 208.621C194.706 208.728 194.429 208.781 194.15 208.78H142.928V158.18H186.07Z" fill="#F0F0F0"/>
<path d="M130.306 170.802C130.311 169.008 130.699 167.236 131.444 165.604C132.189 163.971 133.273 162.516 134.625 161.336C135.976 160.156 137.564 159.278 139.282 158.76C141 158.243 142.808 158.097 144.587 158.334C146.365 158.57 148.073 159.184 149.596 160.133C151.118 161.081 152.421 162.344 153.417 163.837C154.413 165.329 155.08 167.017 155.372 168.787C155.664 170.557 155.575 172.369 155.111 174.102C153.737 179.472 153.073 184.999 153.137 190.542V206.679C153.137 206.958 153.082 207.233 152.975 207.491C152.868 207.748 152.712 207.982 152.514 208.178C152.317 208.375 152.083 208.531 151.826 208.637C151.568 208.743 151.292 208.797 151.014 208.797H134.838C134.56 208.797 134.285 208.742 134.028 208.635C133.771 208.529 133.537 208.373 133.341 208.176C133.144 207.98 132.988 207.746 132.882 207.489C132.775 207.232 132.721 206.957 132.721 206.679V189.574C132.767 184.376 132.109 179.195 130.763 174.174C130.459 173.076 130.306 171.942 130.306 170.802Z" fill="#F5F5F5"/>
<path d="M160.319 208.78H206.305V178.057H160.319V208.78Z" fill="#F0F0F0"/>
<path d="M244.31 185.009H182.759V137.891C182.759 135.358 183.765 132.93 185.556 131.139C187.347 129.348 189.775 128.343 192.308 128.343H234.762C237.294 128.343 239.723 129.348 241.513 131.139C243.304 132.93 244.31 135.358 244.31 137.891V185.009Z" fill="#E0E0E0"/>
<path d="M232.282 185.009H170.731V137.429C170.731 135.017 171.689 132.705 173.394 131C175.099 129.295 177.411 128.337 179.823 128.337H223.168C225.579 128.337 227.892 129.295 229.597 131C231.302 132.705 232.26 135.017 232.26 137.429V185.009H232.282Z" fill="#F5F5F5"/>
<path d="M203.302 187.765H160.914C160.184 187.765 159.485 187.475 158.969 186.959C158.453 186.443 158.164 185.744 158.164 185.015V178.046C158.164 177.317 158.453 176.617 158.969 176.101C159.485 175.586 160.184 175.296 160.914 175.296H203.302C203.522 175.296 203.734 175.384 203.889 175.539C204.045 175.695 204.133 175.906 204.133 176.127V186.94C204.131 187.159 204.043 187.369 203.887 187.523C203.732 187.678 203.521 187.765 203.302 187.765Z" fill="#E0E0E0"/>
<path d="M248.847 158.18C249.139 158.18 249.43 158.18 249.733 158.207C252.774 158.429 255.633 159.741 257.784 161.902C259.934 164.064 261.232 166.93 261.437 169.972C261.529 171.355 261.392 172.743 261.03 174.081C259.651 179.451 258.985 184.981 259.05 190.526V206.663C259.05 206.941 258.995 207.217 258.888 207.474C258.782 207.731 258.625 207.965 258.428 208.162C258.231 208.358 257.997 208.514 257.739 208.62C257.481 208.726 257.206 208.781 256.927 208.78H205.7V158.18H248.847Z" fill="#F0F0F0"/>
<path d="M193.083 170.802C193.061 167.513 194.324 164.345 196.604 161.974C198.884 159.602 201.999 158.215 205.287 158.107C208.575 158 211.775 159.18 214.204 161.398C216.634 163.615 218.102 166.694 218.295 169.977C218.382 171.36 218.244 172.747 217.888 174.086C216.509 179.455 215.843 184.983 215.908 190.526V206.663C215.908 207.224 215.685 207.763 215.288 208.16C214.891 208.557 214.352 208.78 213.79 208.78H197.609C197.331 208.78 197.056 208.725 196.799 208.619C196.542 208.512 196.309 208.356 196.112 208.16C195.916 207.963 195.76 207.73 195.653 207.473C195.547 207.216 195.492 206.941 195.492 206.663V189.574C195.538 184.376 194.881 179.196 193.539 174.174C193.236 173.076 193.083 171.942 193.083 170.802Z" fill="#F5F5F5"/>
<path d="M143.825 210.32H247.945C248.147 210.32 248.347 210.28 248.534 210.203C248.721 210.125 248.89 210.012 249.033 209.869C249.175 209.726 249.288 209.556 249.365 209.369C249.442 209.182 249.481 208.982 249.48 208.78H142.29C142.29 208.982 142.329 209.182 142.406 209.369C142.483 209.556 142.595 209.726 142.738 209.869C142.881 210.012 143.05 210.125 143.236 210.203C143.423 210.28 143.623 210.32 143.825 210.32Z" fill="#E0E0E0"/>
<path d="M205.491 92.3285H238.981V55.803L205.491 55.803V92.3285Z" fill="#E0E0E0"/>
<path d="M203.494 92.3285H237.853V55.803L203.494 55.803V92.3285Z" fill="#F5F5F5"/>
<path d="M234.971 89.452V58.6795H206.366V89.452H234.971Z" fill="white"/>
<path d="M220.671 66.286L228.492 79.838H212.85L220.671 66.286Z" fill="#F5F5F5"/>
<path d="M158.51 113.652H191.999V77.1265H158.51V113.652Z" fill="#E0E0E0"/>
<path d="M156.514 113.652H190.872V77.1265H156.514V113.652Z" fill="#F5F5F5"/>
<path d="M187.99 110.775V80.003H159.385V110.775H187.99Z" fill="white"/>
<path d="M170.192 100.875L166.798 94.996C166.445 94.3823 166.26 93.6865 166.261 92.9786C166.262 92.2706 166.449 91.5752 166.803 90.9623C167.157 90.3494 167.667 89.8404 168.28 89.4865C168.893 89.1326 169.589 88.9462 170.296 88.946H177.1C177.808 88.9469 178.503 89.1337 179.116 89.4876C179.729 89.8415 180.238 90.3501 180.593 90.9627C180.948 91.5752 181.135 92.2701 181.137 92.9779C181.139 93.6857 180.955 94.3816 180.603 94.996L177.21 100.875C176.856 101.494 176.345 102.008 175.729 102.365C175.113 102.723 174.413 102.911 173.701 102.911C172.989 102.911 172.289 102.723 171.673 102.365C171.057 102.008 170.546 101.494 170.192 100.875Z" fill="#F5F5F5"/>
<path d="M174.075 54.615H47.289L55.6325 227.282H182.418L174.075 54.615Z" fill="#D7D7D7"/>
<path opacity="0.2" d="M174.075 54.615H47.289L55.6325 227.282H182.418L174.075 54.615Z" fill="black"/>
<path d="M175.247 54.615H48.4605L56.8095 227.282H183.596L175.247 54.615Z" fill="#D7D7D7"/>
<path opacity="0.2" d="M168.553 60.423H54.2575L62.2435 219.477L161.629 219.345L178.145 204.704L168.553 60.423Z" fill="black"/>
<path d="M169.427 60.4175C170.646 108.051 174.493 155.581 180.95 202.79C171.893 209.024 162.883 215.257 153.918 221.49H68.4365C60.3682 168.146 55.6327 114.351 54.2575 60.4175H169.427Z" fill="white"/>
<path d="M180.95 202.791C171.893 209.024 162.882 215.257 153.917 221.491C155.875 213.241 157.916 204.991 160.039 196.741L180.95 202.791Z" fill="#EBEBEB"/>
<path d="M85.25 74.9705C85.4663 80.7932 85.7193 86.6195 86.009 92.4495H68.5355C68.2422 86.6195 67.9892 80.7932 67.7765 74.9705H85.25ZM87.032 73.128H65.868C66.1137 80.179 66.4198 87.2337 66.7865 94.292H87.956C87.5893 87.2373 87.2832 80.1827 87.0375 73.128H87.032Z" fill="#D7D7D7"/>
<path d="M156.651 81.532H96.8C96.745 80.2175 96.6955 78.8975 96.646 77.583H156.492C156.541 78.8975 156.596 80.2175 156.651 81.532Z" fill="#E0E0E0"/>
<path d="M144.006 89.837H97.1685C97.108 88.517 97.042 87.2025 96.987 85.888H143.819C143.882 87.2043 143.944 88.5207 144.006 89.837Z" fill="#E0E0E0"/>
<path d="M86.966 109.202C87.3327 115.032 87.7415 120.862 88.1925 126.692H70.7135C70.2625 120.862 69.8537 115.032 69.487 109.202H86.966ZM88.693 107.36H67.529C67.9617 114.418 68.4548 121.477 69.0085 128.535H90.2C89.65 121.48 89.155 114.422 88.715 107.36H88.693Z" fill="#D7D7D7"/>
<path d="M120.67 115.769H98.67C98.582 114.449 98.4885 113.135 98.406 111.815H120.406C120.488 113.135 120.576 114.449 120.67 115.769Z" fill="#E0E0E0"/>
<path d="M141.498 115.769H125.323C125.235 114.449 125.142 113.135 125.059 111.815H141.234C141.317 113.135 141.405 114.449 141.498 115.769Z" fill="#E0E0E0"/>
<path d="M151.652 124.08H99.275C99.176 122.76 99.0825 121.445 98.9835 120.125H151.36C151.459 121.445 151.553 122.76 151.652 124.08Z" fill="#E0E0E0"/>
<path d="M89.5895 143.451C90.1138 149.281 90.6785 155.111 91.2835 160.941H73.8045C73.1995 155.111 72.6348 149.281 72.1105 143.451H89.5895ZM91.2725 141.608H70.103C70.7263 148.67 71.4083 155.731 72.149 162.789H93.3185C92.5852 155.727 91.9032 148.667 91.2725 141.608Z" fill="#D7D7D7"/>
<path d="M161.755 154.38H101.899L102.295 158.329H162.151L161.755 154.38Z" fill="#E0E0E0"/>
<path d="M147.95 146.069H101.112C101.233 147.383 101.354 148.704 101.48 150.018H148.313C148.192 148.704 148.065 147.4 147.95 146.069Z" fill="#E0E0E0"/>
<path d="M93.126 177.699C93.808 183.529 94.5285 189.358 95.2875 195.184H77.8085C77.0495 189.361 76.329 183.533 75.647 177.699H93.126ZM94.776 175.857H73.59C74.3967 182.919 75.2675 189.976 76.2025 197.027H97.35C96.4223 189.976 95.5515 182.919 94.7375 175.857H94.776Z" fill="#D7D7D7"/>
<path d="M165.049 184.25H105.193C105.033 182.93 104.874 181.615 104.72 180.295H164.571C164.73 181.632 164.884 182.946 165.049 184.25Z" fill="#E0E0E0"/>
<path d="M133.479 192.571H106.232C106.062 191.257 105.897 189.937 105.732 188.622H132.979C133.144 189.937 133.309 191.257 133.479 192.571Z" fill="#E0E0E0"/>
<path d="M149.748 192.571H137.984C137.813 191.257 137.648 189.937 137.483 188.622H149.248C149.413 189.937 149.6 191.257 149.748 192.571Z" fill="#E0E0E0"/>
<path d="M77.55 89.9525L76.7745 88.7205C75.0805 86.0255 71.6265 83.622 70.433 82.918L71.324 81.3395C73.6655 82.7614 75.7577 84.5581 77.517 86.658C80.179 83.0335 84.117 79.288 89.507 75.262L90.6455 76.747C84.8925 81.0535 80.8665 84.997 78.3255 88.792L77.55 89.9525Z" fill="#D7D7D7"/>
<path d="M79.64 124.195L78.8315 122.963C77.0715 120.268 73.5515 117.859 72.3415 117.155L73.183 115.577C75.5692 116.999 77.7105 118.797 79.5245 120.901C82.0875 117.271 85.921 113.525 91.2065 109.494C91.597 109.989 91.993 110.484 92.3835 110.984C86.746 115.296 82.8245 119.234 80.388 123.035C80.135 123.42 79.8875 123.81 79.64 124.195Z" fill="#D7D7D7"/>
<path d="M82.676 158.532L81.8345 157.3C79.9975 154.605 76.4115 152.196 75.185 151.497C75.449 150.947 75.735 150.441 75.988 149.919C78.4114 151.344 80.5974 153.138 82.467 155.237C84.9365 151.607 88.671 147.867 93.841 143.831L95.062 145.321C89.562 149.633 85.712 153.571 83.3855 157.371L82.676 158.532Z" fill="#D7D7D7"/>
<path d="M138.121 212.003C134.876 212.003 133.006 210.804 131.356 209.748C129.706 208.692 128.287 207.779 125.548 207.779C122.809 207.779 121.588 208.736 120.296 209.748C119.003 210.76 117.419 212.003 114.174 212.003C110.929 212.003 109.059 210.804 107.415 209.748C105.77 208.692 104.351 207.779 101.607 207.779C98.8625 207.779 97.647 208.736 96.3545 209.748C95.062 210.76 93.478 212.003 90.2385 212.003C86.999 212.003 85.1235 210.804 83.4735 209.748C81.8235 208.692 80.41 207.779 77.6655 207.779C77.594 207.229 77.517 206.723 77.4455 206.195C80.6905 206.195 82.555 207.394 84.205 208.45C85.855 209.506 87.2685 210.419 90.0075 210.419C92.7465 210.419 93.9675 209.462 95.26 208.45C96.5525 207.438 98.142 206.195 101.387 206.195C104.632 206.195 106.491 207.394 108.141 208.45C109.791 209.506 111.21 210.419 113.949 210.419C116.688 210.419 117.909 209.462 119.201 208.45C120.494 207.438 122.083 206.195 125.328 206.195C128.573 206.195 130.438 207.394 132.088 208.45C133.738 209.506 135.151 210.419 137.896 210.419C137.967 210.947 138.05 211.475 138.121 212.003Z" fill="#EBEBEB"/>
<path d="M142.774 58.8885C140.915 53.9385 136.62 50.688 132 50.688H122.584C121.883 50.6819 121.199 50.4702 120.618 50.0791C120.036 49.688 119.582 49.1348 119.311 48.488C118.646 46.9072 117.533 45.5553 116.109 44.5987C114.685 43.6421 113.013 43.1224 111.298 43.1035C109.639 43.0867 108.018 43.5998 106.67 44.5683C105.323 45.5367 104.32 46.9099 103.807 48.488C103.598 49.1337 103.188 49.6955 102.637 50.0914C102.086 50.4872 101.422 50.6963 100.743 50.688H91.333C86.7075 50.688 82.7255 53.955 81.3505 58.8885L80.8005 60.852H143.5L142.774 58.8885Z" fill="#8687E7"/>
<path d="M143.11 62.788H81.4C80.8795 62.7819 80.3807 62.5788 80.0041 62.2195C79.6275 61.8603 79.4011 61.3716 79.3705 60.852C79.357 60.6024 79.3947 60.3526 79.4814 60.1181C79.568 59.8836 79.7018 59.6693 79.8744 59.4884C80.047 59.3076 80.2548 59.164 80.485 59.0665C80.7153 58.969 80.963 58.9196 81.213 58.9215H142.923C143.443 58.9275 143.941 59.1298 144.317 59.4879C144.694 59.8461 144.921 60.3334 144.952 60.852C144.967 61.1021 144.93 61.3525 144.843 61.5876C144.757 61.8228 144.623 62.0377 144.451 62.2192C144.278 62.4006 144.07 62.5447 143.839 62.6426C143.609 62.7404 143.36 62.7899 143.11 62.788Z" fill="#BCBDFF"/>
<path opacity="0.2" d="M143.11 62.788H81.4C80.8795 62.7819 80.3807 62.5788 80.0041 62.2195C79.6275 61.8603 79.4011 61.3716 79.3705 60.852C79.357 60.6024 79.3947 60.3526 79.4814 60.1181C79.568 59.8836 79.7018 59.6693 79.8744 59.4884C80.047 59.3076 80.2548 59.164 80.485 59.0665C80.7153 58.969 80.963 58.9196 81.213 58.9215H142.923C143.443 58.9275 143.941 59.1298 144.317 59.4879C144.694 59.8461 144.921 60.3334 144.952 60.852C144.967 61.1021 144.93 61.3525 144.843 61.5876C144.757 61.8228 144.623 62.0377 144.451 62.2192C144.278 62.4006 144.07 62.5447 143.839 62.6426C143.609 62.7404 143.36 62.7899 143.11 62.788Z" fill="black"/>
<path d="M198.506 225.627H194.474L194.073 216.293H198.104L198.506 225.627Z" fill="#FFC3BD"/>
<path d="M222.7 225.627H218.669L216.645 216.293H220.671L222.7 225.627Z" fill="#FFC3BD"/>
<path d="M218.383 225.159H222.91C222.989 225.159 223.067 225.186 223.129 225.236C223.191 225.286 223.234 225.356 223.251 225.434L224.048 229.02C224.066 229.107 224.064 229.197 224.043 229.283C224.022 229.369 223.982 229.45 223.925 229.519C223.869 229.587 223.797 229.642 223.717 229.68C223.636 229.717 223.548 229.736 223.46 229.735C221.881 229.707 221.111 229.614 219.12 229.614C217.894 229.614 215.369 229.74 213.681 229.74C211.992 229.74 211.767 228.09 212.46 227.92C215.567 227.238 216.733 226.303 217.729 225.406C217.909 225.247 218.142 225.159 218.383 225.159Z" fill="#263238"/>
<path d="M194.502 225.159H198.902C198.982 225.159 199.059 225.186 199.121 225.236C199.184 225.286 199.227 225.356 199.243 225.434L200.04 229.02C200.06 229.104 200.061 229.191 200.042 229.276C200.024 229.36 199.987 229.439 199.935 229.508C199.882 229.576 199.815 229.632 199.738 229.671C199.661 229.711 199.577 229.732 199.49 229.735C197.901 229.707 195.607 229.614 193.611 229.614C191.279 229.614 189.266 229.74 186.527 229.74C184.877 229.74 184.415 228.09 185.108 227.92C188.259 227.227 190.834 227.155 193.556 225.473C193.838 225.285 194.164 225.177 194.502 225.159Z" fill="#263238"/>
<path d="M202.4 78.606C201.85 81.554 201.531 85.206 203.594 87.175C203.594 87.175 202.411 90.167 196.933 90.167C191.928 90.167 194.436 87.175 194.436 87.175C197.736 86.3885 197.549 82.324 196.977 80.025L202.4 78.606Z" fill="#FFC3BD"/>
<path d="M192.863 87.5875C192.973 86.856 194.26 86.0035 195.723 85.6845C197.186 85.3655 202.807 84.656 204.523 85.3655C206.239 86.075 204.226 88.176 204.226 88.176L192.863 87.5875Z" fill="#D7D7D7"/>
<path opacity="0.4" d="M192.863 87.5875C192.973 86.856 194.26 86.0035 195.723 85.6845C197.186 85.3655 202.807 84.656 204.523 85.3655C206.239 86.075 204.226 88.176 204.226 88.176L192.863 87.5875Z" fill="white"/>
<path opacity="0.2" d="M194.073 216.298L194.282 221.105H198.314L198.105 216.298H194.073Z" fill="black"/>
<path opacity="0.2" d="M220.676 216.298H216.645L217.69 221.105H221.721L220.676 216.298Z" fill="black"/>
<path d="M211.942 90.805L207.086 94.05C207.086 94.05 214.06 106.452 213.477 108.438C212.68 111.144 211.569 117.056 210.056 120.059C210.254 120.708 211.26 122.188 211.821 122.441C215.671 119.515 219.56 110.341 219.417 107.772C219.082 101.948 211.942 90.805 211.942 90.805Z" fill="#FFC3BD"/>
<path d="M210.056 120.07L206.206 119.773L208.224 124.014C208.224 124.014 211.585 124.162 212.146 121.594L210.056 120.07Z" fill="#B55B52"/>
<path d="M229.086 140.751L228.762 141.361L226.584 145.481L149.265 104.599L151.761 99.869L229.086 140.751Z" fill="#D7D7D7"/>
<path d="M234.085 131.307L232.49 134.321L231.589 136.026L154.264 95.1445L156.761 90.4145L234.085 131.307Z" fill="#D7D7D7"/>
<path d="M154.29 95.1306L151.787 99.8547L229.08 140.796L231.582 136.072L154.29 95.1306Z" fill="#D7D7D7"/>
<path opacity="0.2" d="M154.29 95.1306L151.787 99.8547L229.08 140.796L231.582 136.072L154.29 95.1306Z" fill="black"/>
<path d="M145.931 91.0415L143.682 95.2985L149.265 104.599L156.761 90.42L145.931 91.0415Z" fill="#D7D7D7"/>
<path opacity="0.8" d="M145.931 91.0415L143.682 95.2985L149.265 104.599L156.761 90.42L145.931 91.0415Z" fill="white"/>
<path d="M141.29 91.311L143.682 95.2985L145.931 91.0415L141.29 91.311Z" fill="#D7D7D7"/>
<path d="M203.109 121.704L205.123 125.455L208.241 124.014L206.223 119.773L203.109 121.704Z" fill="#B55B52"/>
<path d="M210.787 88.088C214.599 88.638 218.966 101.838 218.966 101.838L210.958 106.359C210.958 106.359 207.433 100.1 205.7 95.4249C203.874 90.5355 206.701 87.494 210.787 88.088Z" fill="#8687E7"/>
<path opacity="0.2" d="M208.571 92.6145C206.838 91.0305 207.9 97.812 208.725 102.151C209.148 102.998 209.55 103.768 209.891 104.412C211.821 101.002 210.958 94.798 208.571 92.6145Z" fill="black"/>
<path d="M188.215 88.297C188.215 88.297 183.458 100.463 187.973 123.123H209.55C209.698 119.823 207.619 103.675 210.809 88.088C208.426 87.6279 206.016 87.3229 203.593 87.175C200.544 86.9989 197.486 86.9989 194.436 87.175C192.336 87.385 190.256 87.7601 188.215 88.297Z" fill="#8687E7"/>
<path d="M191.532 93.951L186.098 91.8005C186.098 91.8005 179.839 104.577 177.848 105.22C175.169 106.1 169.669 108.52 166.336 108.993C165.918 109.543 165.269 111.193 165.374 111.798C169.966 113.3 179.74 111.309 181.764 109.736C186.406 106.15 191.532 93.951 191.532 93.951Z" fill="#FFC3BD"/>
<path opacity="0.2" d="M192.142 92.499C191.246 90.431 189.53 89.5675 187.742 89.87C187.049 92.4055 185.878 97.977 186.092 106.37L187.374 106.986C187.374 106.986 193.677 96.0355 192.142 92.499Z" fill="black"/>
<path d="M193.001 91.0525C194.354 94.6605 187.501 105.275 187.501 105.275L179.437 100.875C180.649 97.5739 182.211 94.4117 184.096 91.443C186.929 87.2135 191.51 87.098 193.001 91.0525Z" fill="#8687E7"/>
<path d="M166.534 108.982L161.739 110L164.169 114.438C165.51 113.772 166.728 112.883 167.772 111.809L166.534 108.982Z" fill="#FFC3BD"/>
<path d="M159.472 111.006L161.386 113.657L164.169 114.46L161.738 110.022L159.472 111.006Z" fill="#FFC3BD"/>
<path d="M193.259 74.3655C193.259 74.69 193.055 74.9155 192.841 74.9155C192.626 74.9155 192.472 74.6295 192.494 74.305C192.516 73.9805 192.698 73.755 192.912 73.755C193.127 73.755 193.281 74.041 193.259 74.3655Z" fill="#263238"/>
<path d="M193.545 74.393C193.101 75.3621 192.525 76.2652 191.835 77.077C192.047 77.2488 192.294 77.3718 192.56 77.4374C192.825 77.503 193.101 77.5095 193.369 77.4565L193.545 74.393Z" fill="#ED847E"/>
<path d="M192.846 73.2435C192.817 73.2373 192.789 73.2262 192.764 73.2105C192.743 73.1971 192.724 73.1796 192.71 73.1589C192.695 73.1382 192.685 73.1149 192.68 73.0902C192.675 73.0656 192.675 73.0401 192.68 73.0154C192.685 72.9907 192.695 72.9673 192.709 72.9465C192.868 72.6889 193.087 72.4729 193.346 72.3161C193.605 72.1593 193.897 72.0662 194.199 72.0445C194.25 72.0471 194.297 72.0683 194.333 72.1038C194.368 72.1394 194.389 72.1868 194.392 72.237C194.392 72.288 194.372 72.337 194.336 72.3731C194.3 72.4092 194.251 72.4295 194.199 72.4295C193.965 72.4514 193.739 72.5279 193.539 72.6531C193.339 72.7782 193.172 72.9484 193.05 73.15C193.03 73.1849 193 73.2126 192.963 73.2294C192.927 73.2461 192.886 73.2511 192.846 73.2435Z" fill="#263238"/>
<path d="M204.193 74.085C203.72 78.056 203.643 80.399 201.514 82.335C198.308 85.239 193.495 83.1325 192.769 79.0955C192.12 75.4655 193.006 69.586 196.999 68.222C197.878 67.918 198.819 67.8435 199.735 68.0057C200.65 68.1679 201.509 68.5614 202.23 69.1487C202.951 69.7361 203.509 70.4979 203.853 71.3618C204.196 72.2257 204.313 73.1631 204.193 74.085Z" fill="#FFC3BD"/>
<path d="M196.19 74.8605C194.799 75.1355 192.577 72.0445 194.392 69.421C193.474 68.9645 190.476 70.7685 189.348 69.0855C188.221 67.4025 191.35 66.506 190.751 65.0815C192.874 65.516 189.376 68.167 191.394 67.9085C193.413 67.65 195.739 63.921 197.995 65.45C201.982 68.1285 207.416 63.6625 205.2 69.256C207.917 68.706 209.776 71.918 207.185 74.1455C202.021 78.573 205.2 79.156 201.927 79.3815C200.288 79.5025 196.476 77.55 196.19 74.8605Z" fill="#263238"/>
<path d="M198.253 75.9C198.063 76.297 197.795 76.6519 197.465 76.9438C197.135 77.2357 196.751 77.4586 196.334 77.5995C195.234 77.979 194.601 76.9945 194.86 75.911C195.091 74.932 195.96 73.557 197.098 73.656C197.348 73.6804 197.588 73.7671 197.795 73.9081C198.003 74.0491 198.172 74.24 198.287 74.4632C198.402 74.6865 198.459 74.935 198.453 75.186C198.447 75.437 198.378 75.6825 198.253 75.9Z" fill="#FFC3BD"/>
<path d="M195.619 123.123C195.619 123.123 200.194 153.923 202.702 165.473C205.452 178.123 215.809 220.192 215.809 220.192H223.19C223.19 220.192 216.365 179.129 214.792 166.617C213.092 153.043 209.528 123.139 209.528 123.139L195.619 123.123Z" fill="#D7D7D7"/>
<path opacity="0.2" d="M195.619 123.123C195.619 123.123 200.194 153.923 202.702 165.473C205.452 178.123 215.809 220.192 215.809 220.192H223.19C223.19 220.192 216.365 179.129 214.792 166.617C213.092 153.043 209.528 123.139 209.528 123.139L195.619 123.123Z" fill="white"/>
<path opacity="0.2" d="M201.052 133.892C200.711 133.408 200.404 133.243 200.118 133.342H200.057C199.992 133.37 199.931 133.407 199.876 133.452C199.817 133.5 199.764 133.553 199.716 133.611L199.628 133.721L199.513 133.903C199.417 134.063 199.334 134.23 199.265 134.403C199.221 134.508 199.177 134.618 199.139 134.728C199.1 134.838 199.04 135.008 198.996 135.162C198.952 135.316 198.869 135.58 198.809 135.806C198.809 135.866 198.781 135.921 198.765 135.982C198.748 136.042 198.704 136.235 198.677 136.361C198.649 136.488 198.627 136.581 198.605 136.691C198.556 136.906 198.512 137.131 198.468 137.362C198.424 137.593 198.374 137.863 198.33 138.121C198.33 138.209 198.303 138.297 198.286 138.391C198.231 138.721 198.182 139.056 198.132 139.403C199.353 147.07 200.805 155.859 201.982 161.991C202.037 161.793 202.097 161.584 202.147 161.359C202.387 160.336 202.571 159.3 202.697 158.257C203.736 150.353 203.258 137.043 201.052 133.892Z" fill="black"/>
<path d="M187.973 123.123C187.973 123.123 187.423 153.252 187.858 165.544C188.314 178.326 192.78 220.176 192.78 220.176H199.606C199.606 220.176 199.853 179.069 200.156 166.518C200.486 152.834 202.136 123.123 202.136 123.123H187.973Z" fill="#D7D7D7"/>
<path opacity="0.2" d="M187.973 123.123C187.973 123.123 187.423 153.252 187.858 165.544C188.314 178.326 192.78 220.176 192.78 220.176H199.606C199.606 220.176 199.853 179.069 200.156 166.518C200.486 152.834 202.136 123.123 202.136 123.123H187.973Z" fill="white"/>
<path d="M200.057 218.086C200.084 218.086 200.057 220.313 200.057 220.313H192.187L191.856 217.811L200.057 218.086Z" fill="#263238"/>
<path d="M223.19 218.251C223.223 218.251 223.559 220.313 223.559 220.313H215.446L214.731 217.948L223.19 218.251Z" fill="#263238"/>
<path d="M217.052 225.863C216.778 225.885 216.504 225.813 216.277 225.66C216.203 225.6 216.145 225.521 216.111 225.433C216.076 225.344 216.065 225.248 216.079 225.153C216.079 225.099 216.094 225.045 216.122 224.997C216.15 224.95 216.19 224.911 216.238 224.884C216.684 224.659 217.987 225.434 218.136 225.544C218.151 225.555 218.162 225.57 218.169 225.588C218.176 225.605 218.178 225.625 218.174 225.643C218.171 225.662 218.163 225.679 218.15 225.692C218.137 225.706 218.121 225.716 218.103 225.72C217.759 225.806 217.406 225.854 217.052 225.863ZM216.452 225.032C216.411 225.023 216.368 225.023 216.326 225.032C216.307 225.044 216.291 225.06 216.28 225.079C216.27 225.098 216.265 225.12 216.266 225.143C216.257 225.207 216.265 225.272 216.288 225.332C216.311 225.393 216.349 225.447 216.398 225.489C216.847 225.698 217.359 225.725 217.828 225.566C217.408 225.301 216.941 225.12 216.452 225.032Z" fill="#D7D7D7"/>
<path d="M218.08 225.725C218.066 225.73 218.051 225.73 218.036 225.725C217.618 225.5 216.815 224.625 216.898 224.169C216.912 224.099 216.95 224.036 217.005 223.991C217.06 223.946 217.129 223.921 217.2 223.921C217.273 223.911 217.347 223.916 217.417 223.937C217.488 223.958 217.553 223.994 217.607 224.042C218.075 224.422 218.157 225.588 218.157 225.637C218.157 225.654 218.153 225.671 218.145 225.686C218.138 225.702 218.127 225.715 218.113 225.725C218.103 225.727 218.091 225.727 218.08 225.725ZM217.266 224.075H217.25C217.123 224.075 217.112 224.147 217.107 224.174C217.057 224.438 217.569 225.104 217.987 225.417C217.958 224.959 217.791 224.52 217.508 224.158C217.473 224.128 217.432 224.106 217.387 224.093C217.343 224.081 217.296 224.079 217.25 224.086L217.266 224.075Z" fill="#D7D7D7"/>
<path d="M192.825 225.863C192.479 225.895 192.134 225.808 191.846 225.615C191.782 225.558 191.733 225.486 191.703 225.405C191.672 225.325 191.661 225.239 191.67 225.153C191.67 225.101 191.684 225.05 191.711 225.005C191.738 224.961 191.777 224.925 191.824 224.9C192.313 224.625 193.936 225.45 194.117 225.544C194.135 225.552 194.15 225.567 194.159 225.585C194.168 225.603 194.171 225.623 194.167 225.643C194.164 225.663 194.155 225.681 194.141 225.695C194.127 225.709 194.109 225.718 194.09 225.72C193.674 225.809 193.25 225.857 192.825 225.863ZM192.093 225.032C192.033 225.03 191.972 225.041 191.917 225.065C191.899 225.076 191.883 225.091 191.873 225.11C191.862 225.128 191.857 225.149 191.857 225.17C191.849 225.226 191.855 225.283 191.875 225.336C191.896 225.389 191.929 225.436 191.972 225.472C192.22 225.692 192.885 225.731 193.776 225.582C193.25 225.306 192.681 225.12 192.093 225.032Z" fill="#D7D7D7"/>
<path d="M194.073 225.725H194.035C193.545 225.505 192.582 224.626 192.659 224.18C192.659 224.076 192.753 223.938 193.011 223.916C193.109 223.902 193.209 223.908 193.304 223.936C193.399 223.963 193.487 224.011 193.562 224.076C194.073 224.499 194.178 225.582 194.183 225.632C194.185 225.648 194.183 225.664 194.176 225.679C194.169 225.694 194.158 225.706 194.145 225.715C194.123 225.727 194.097 225.731 194.073 225.725ZM193.089 224.076H193.05C192.879 224.076 192.868 224.158 192.863 224.186C192.819 224.455 193.474 225.143 193.963 225.44C193.915 224.978 193.723 224.542 193.413 224.197C193.319 224.126 193.206 224.088 193.089 224.087V224.076Z" fill="#D7D7D7"/>
</svg>
