<svg width="80" height="80" viewBox="0 0 80 80" fill="none" xmlns="http://www.w3.org/2000/svg">
<path fill-rule="evenodd" clip-rule="evenodd" d="M6.66669 36.6667C6.66669 22.5246 6.66669 15.4535 11.0601 11.0601C15.4535 6.66669 22.5246 6.66669 36.6667 6.66669H43.3333C57.4755 6.66669 64.5466 6.66669 68.94 11.0601C73.3334 15.4535 73.3334 22.5246 73.3334 36.6667V43.3333C73.3334 57.4755 73.3334 64.5466 68.94 68.94C64.5466 73.3334 57.4755 73.3334 43.3334 73.3334H36.6667C22.5246 73.3334 15.4535 73.3334 11.0601 68.94C6.66669 64.5466 6.66669 57.4755 6.66669 43.3334V36.6667ZM27.216 56.6729C30.8836 53.8587 35.3772 52.3334 40 52.3334C44.6228 52.3334 49.1165 53.8587 52.784 56.6729C56.4515 59.4871 59.088 63.4329 60.2845 67.8982C60.4274 68.4316 60.1108 68.98 59.5774 69.1229C59.0439 69.2658 58.4956 68.9493 58.3526 68.4158C57.2701 64.3758 54.8847 60.8058 51.5665 58.2596C48.2483 55.7135 44.1826 54.3334 40 54.3334C35.8175 54.3334 31.7518 55.7135 28.4336 58.2596C25.1153 60.8058 22.73 64.3758 21.6474 68.4158C21.5045 68.9492 20.9562 69.2658 20.4227 69.1229C19.8892 68.9799 19.5726 68.4316 19.7156 67.8981C20.9121 63.4328 23.5485 59.4871 27.216 56.6729ZM31 30C31 25.0295 35.0295 21 40 21C44.9706 21 49 25.0295 49 30C49 34.9706 44.9706 39 40 39C35.0295 39 31 34.9706 31 30ZM40 19C33.9249 19 29 23.9249 29 30C29 36.0752 33.9249 41 40 41C46.0752 41 51 36.0752 51 30C51 23.9249 46.0752 19 40 19Z" fill="#222222"/>
<rect x="7.16669" y="7.16669" width="65.6667" height="65.6667" rx="14.5" stroke="#222222"/>
</svg>
